<?xml version="1.0" encoding="UTF-8" standalone="no"?>
<!DOCTYPE svg PUBLIC "-//W3C//DTD SVG 1.1//EN"
 "http://www.w3.org/Graphics/SVG/1.1/DTD/svg11.dtd">
<!-- Generated by graphviz version 2.36.0 (20140111.2315)
 -->
<!-- Title: stations Pages: 1 -->
<svg width="512pt" height="184pt"
 viewBox="0.00 0.00 512.00 184.35" xmlns="http://www.w3.org/2000/svg" xmlns:xlink="http://www.w3.org/1999/xlink">
<g id="graph0" class="graph" transform="scale(1 1) rotate(0) translate(4 180.352)">
<title>stations</title>
<polygon fill="white" stroke="none" points="-4,4 -4,-180.352 508,-180.352 508,4 -4,4"/>
<!-- C -->
<g id="node1" class="node"><title>C</title>
<ellipse fill="none" stroke="black" cx="207" cy="-109.6" rx="27" ry="18"/>
<text text-anchor="middle" x="207" y="-105.9" font-family="Times,serif" font-size="14.00">C</text>
</g>
<!-- D -->
<g id="node2" class="node"><title>D</title>
<ellipse fill="none" stroke="black" cx="297" cy="-109.6" rx="27" ry="18"/>
<text text-anchor="middle" x="297" y="-105.9" font-family="Times,serif" font-size="14.00">D</text>
</g>
<!-- C&#45;&gt;D -->
<g id="edge1" class="edge"><title>C&#45;&gt;D</title>
<path fill="none" stroke="black" d="M234.403,-109.6C242.393,-109.6 251.311,-109.6 259.824,-109.6"/>
<polygon fill="black" stroke="black" points="259.919,-113.1 269.919,-109.6 259.919,-106.1 259.919,-113.1"/>
</g>
<!-- A -->
<g id="node3" class="node"><title>A</title>
<ellipse fill="none" stroke="black" cx="27" cy="-109.6" rx="27" ry="18"/>
<text text-anchor="middle" x="27" y="-105.9" font-family="Times,serif" font-size="14.00">A</text>
</g>
<!-- C&#45;&gt;A -->
<g id="edge6" class="edge"><title>C&#45;&gt;A</title>
<path fill="none" stroke="purple" d="M194.925,-125.901C183.946,-140.472 165.661,-160.835 144,-169.6 121.752,-178.602 112.248,-178.602 90,-169.6 72.062,-162.341 56.4395,-147.129 45.3636,-133.839"/>
<polygon fill="purple" stroke="purple" points="48.0279,-131.566 39.0748,-125.901 42.5411,-135.912 48.0279,-131.566"/>
</g>
<!-- B -->
<g id="node4" class="node"><title>B</title>
<ellipse fill="none" stroke="black" cx="117" cy="-109.6" rx="27" ry="18"/>
<text text-anchor="middle" x="117" y="-105.9" font-family="Times,serif" font-size="14.00">B</text>
</g>
<!-- C&#45;&gt;B -->
<g id="edge7" class="edge"><title>C&#45;&gt;B</title>
<path fill="none" stroke="purple" d="M181.313,-115.735C172.407,-116.34 162.184,-116.498 152.588,-116.211"/>
<polygon fill="purple" stroke="purple" points="152.67,-112.711 142.513,-115.723 152.332,-119.702 152.67,-112.711"/>
</g>
<!-- E -->
<g id="node5" class="node"><title>E</title>
<ellipse fill="none" stroke="black" cx="387" cy="-109.6" rx="27" ry="18"/>
<text text-anchor="middle" x="387" y="-105.9" font-family="Times,serif" font-size="14.00">E</text>
</g>
<!-- C&#45;&gt;E -->
<g id="edge8" class="edge"><title>C&#45;&gt;E</title>
<path fill="none" stroke="purple" d="M228.244,-98.2576C240.03,-92.3089 255.403,-85.6402 270,-82.5997 293.496,-77.7057 300.504,-77.7057 324,-82.5997 335.062,-84.9038 346.569,-89.2916 356.623,-93.8706"/>
<polygon fill="purple" stroke="purple" points="355.227,-97.0825 365.756,-98.2576 358.258,-90.7727 355.227,-97.0825"/>
</g>
<!-- F -->
<g id="node6" class="node"><title>F</title>
<ellipse fill="none" stroke="black" cx="477" cy="-109.6" rx="27" ry="18"/>
<text text-anchor="middle" x="477" y="-105.9" font-family="Times,serif" font-size="14.00">F</text>
</g>
<!-- C&#45;&gt;F -->
<g id="edge9" class="edge"><title>C&#45;&gt;F</title>
<path fill="none" stroke="purple" d="M225.643,-96.3761C237.502,-88.3418 253.861,-78.8405 270,-74.5997 331.899,-58.3347 352.101,-58.3347 414,-74.5997 426.482,-77.8797 439.097,-84.3066 449.658,-90.7676"/>
<polygon fill="purple" stroke="purple" points="448.056,-93.8987 458.357,-96.3761 451.849,-88.0156 448.056,-93.8987"/>
</g>
<!-- D&#45;&gt;E -->
<!-- A&#45;&gt;D -->
<g id="edge13" class="edge"><title>A&#45;&gt;D</title>
<path fill="none" stroke="blue" d="M47.1436,-121.833C71.058,-135.424 112.643,-153.381 144,-136.6 169.431,-122.989 154.569,-96.2102 180,-82.5997 201.16,-71.2752 210.504,-77.7057 234,-82.5997 245.062,-84.9038 256.569,-89.2916 266.623,-93.8706"/>
<polygon fill="blue" stroke="blue" points="265.227,-97.0825 275.756,-98.2576 268.258,-90.7727 265.227,-97.0825"/>
</g>
<!-- A&#45;&gt;B -->
<!-- A&#45;&gt;E -->
<g id="edge14" class="edge"><title>A&#45;&gt;E</title>
<path fill="none" stroke="blue" d="M45.9739,-96.1942C73.2493,-76.7772 127.491,-41.7174 180,-28.5997 242.474,-12.9926 267.258,-14.1536 324,-44.5997 341.867,-54.1865 357.577,-70.8013 368.713,-84.8327"/>
<polygon fill="blue" stroke="blue" points="366.197,-87.3059 375.034,-93.1495 371.77,-83.0701 366.197,-87.3059"/>
</g>
<!-- A&#45;&gt;F -->
<g id="edge15" class="edge"><title>A&#45;&gt;F</title>
<path fill="none" stroke="blue" d="M37.6687,-93.0255C48.3409,-76.2267 67.0811,-50.7532 90,-36.5997 125.035,-14.9637 139.118,-19.524 180,-14.5997 283.63,-2.11759 324.118,18.4686 414,-34.5997 434.007,-46.4125 450.412,-67.1792 461.31,-83.8698"/>
<polygon fill="blue" stroke="blue" points="458.521,-86.0116 466.786,-92.6403 464.459,-82.3042 458.521,-86.0116"/>
</g>
<!-- B&#45;&gt;C -->
<!-- B&#45;&gt;D -->
<g id="edge16" class="edge"><title>B&#45;&gt;D</title>
<path fill="none" stroke="green" d="M129.075,-93.2988C140.054,-78.7277 158.339,-58.3647 180,-49.5997 202.248,-40.5974 211.752,-40.5974 234,-49.5997 251.938,-56.8582 267.561,-72.0705 278.636,-85.3605"/>
<polygon fill="green" stroke="green" points="275.972,-87.6338 284.925,-93.2988 281.459,-83.287 275.972,-87.6338"/>
</g>
<!-- B&#45;&gt;E -->
<g id="edge17" class="edge"><title>B&#45;&gt;E</title>
<path fill="none" stroke="green" d="M126.987,-92.6661C137.22,-75.4011 155.715,-49.6341 180,-38.5997 201.85,-28.6716 210.433,-34.0612 234,-38.5997 280.453,-47.5458 329.147,-73.7204 358.539,-91.6607"/>
<polygon fill="green" stroke="green" points="357.038,-94.8488 367.376,-97.1638 360.738,-88.9067 357.038,-94.8488"/>
</g>
<!-- B&#45;&gt;F -->
<g id="edge18" class="edge"><title>B&#45;&gt;F</title>
<path fill="none" stroke="green" d="M128.286,-92.8349C141.962,-71.198 166.027,-35.5007 180,-28.5997 230.144,-3.83406 329.151,-21.2388 414,-59.5997 428.803,-66.2924 443.077,-77.3727 454.19,-87.404"/>
<polygon fill="green" stroke="green" points="452.001,-90.1494 461.685,-94.4452 456.793,-85.0474 452.001,-90.1494"/>
</g>
<!-- E&#45;&gt;D -->
<g id="edge10" class="edge"><title>E&#45;&gt;D</title>
<path fill="none" stroke="red" d="M361.313,-115.735C352.407,-116.34 342.184,-116.498 332.588,-116.211"/>
<polygon fill="red" stroke="red" points="332.67,-112.711 322.513,-115.723 332.332,-119.702 332.67,-112.711"/>
</g>
<!-- E&#45;&gt;F -->
<!-- E&#45;&gt;F -->
<g id="edge11" class="edge"><title>E&#45;&gt;F</title>
<path fill="none" stroke="red" d="M412.513,-115.723C421.402,-116.334 431.62,-116.498 441.224,-116.216"/>
<polygon fill="red" stroke="red" points="441.491,-119.707 451.313,-115.735 441.158,-112.715 441.491,-119.707"/>
</g>
<!-- F&#45;&gt;D -->
<g id="edge12" class="edge"><title>F&#45;&gt;D</title>
<path fill="none" stroke="orange" d="M455.756,-98.2576C443.97,-92.3089 428.597,-85.6402 414,-82.5997 390.504,-77.7057 383.496,-77.7057 360,-82.5997 348.938,-84.9038 337.431,-89.2916 327.377,-93.8706"/>
<polygon fill="orange" stroke="orange" points="325.742,-90.7727 318.244,-98.2576 328.773,-97.0825 325.742,-90.7727"/>
</g>
</g>
</svg>
